<?xml version="1.0" standalone="no"?><!DOCTYPE svg PUBLIC "-//W3C//DTD SVG 1.1//EN" "http://www.w3.org/Graphics/SVG/1.1/DTD/svg11.dtd"><svg t="1681998587308" class="icon" viewBox="0 0 1024 1024" version="1.1" xmlns="http://www.w3.org/2000/svg" p-id="4269" xmlns:xlink="http://www.w3.org/1999/xlink" width="200" height="200"><path d="M806.4 195.2 240 195.2c-48 3.2-51.2 76.8-51.2 76.8l665.6 0C851.2 187.2 806.4 195.2 806.4 195.2z" p-id="4270" fill="#ffffff"></path><path d="M620.8 105.6 424 105.6c0 0-27.2 1.6-40 52.8l281.6 0C664 158.4 651.2 115.2 620.8 105.6z" p-id="4271" fill="#ffffff"></path><path d="M803.2 305.6 232 305.6l1.6 577.6c0 46.4 43.2 43.2 43.2 43.2l480 0c48-1.6 46.4-46.4 46.4-46.4L803.2 305.6zM408 825.6c0 0 1.6 22.4-27.2 22.4 0 0-20.8 1.6-27.2-22.4L353.6 403.2c0 0 1.6-22.4 27.2-22.4 0 0 22.4-3.2 27.2 22.4L408 825.6zM545.6 825.6c0 0 1.6 22.4-27.2 22.4 0 0-20.8 1.6-27.2-22.4L491.2 403.2c0 0 1.6-22.4 27.2-22.4 0 0 22.4-3.2 27.2 22.4L545.6 825.6zM683.2 825.6c0 0 1.6 22.4-27.2 22.4 0 0-20.8 1.6-27.2-22.4L628.8 403.2c0 0 1.6-22.4 27.2-22.4 0 0 22.4-3.2 27.2 22.4L683.2 825.6z" p-id="4272" fill="#ffffff"></path></svg>
